<svg width="25" height="12" viewBox="0 0 25 12" fill="none" xmlns="http://www.w3.org/2000/svg">
<path opacity="0.35" d="M0.5 2.99992C0.5 1.8033 1.47005 0.833252 2.66667 0.833252H19.3333C20.53 0.833252 21.5 1.8033 21.5 2.99992V8.99992C21.5 10.1965 20.53 11.1666 19.3333 11.1666H2.66667C1.47005 11.1666 0.5 10.1965 0.5 8.99992V2.99992Z" stroke="white" stroke-opacity="0.9"/>
<path opacity="0.4" d="M23 4V8C23.8047 7.66122 24.328 6.87313 24.328 6C24.328 5.12687 23.8047 4.33878 23 4Z" fill="white" fill-opacity="0.9"/>
<path d="M2 3.66659C2 2.93021 2.59695 2.33325 3.33333 2.33325H18.6667C19.403 2.33325 20 2.93021 20 3.66659V8.33325C20 9.06963 19.403 9.66659 18.6667 9.66659H3.33333C2.59695 9.66659 2 9.06963 2 8.33325V3.66659Z" fill="white" fill-opacity="0.9"/>
</svg>
