<svg width="26" height="24" viewBox="0 0 26 24" fill="none" xmlns="http://www.w3.org/2000/svg">
<path d="M9.74338 20.7821V17.7152C9.74337 16.9381 10.4109 16.3067 11.2378 16.3018H14.2739C15.1045 16.3018 15.7778 16.9346 15.7778 17.7152V20.7732C15.7777 21.4473 16.3564 21.9951 17.0735 22H19.1449C20.1123 22.0023 21.0409 21.6428 21.7259 21.0007C22.4108 20.3586 22.7958 19.4868 22.7958 18.5775V9.86585C22.7958 9.13139 22.4494 8.43471 21.85 7.9635L14.813 2.67427C13.5829 1.74912 11.8261 1.77901 10.6325 2.74538L3.74685 7.9635C3.1191 8.42082 2.7439 9.11956 2.72536 9.86585V18.5686C2.72536 20.4637 4.35992 22 6.37624 22H8.40031C8.74561 22.0023 9.07763 21.8751 9.32269 21.6464C9.56774 21.4178 9.70556 21.1067 9.70555 20.7821H9.74338Z" fill="url(#paint0_linear_277_19261)"/>
<defs>
<linearGradient id="paint0_linear_277_19261" x1="2.72536" y1="0.77193" x2="25.8909" y2="4.37373" gradientUnits="userSpaceOnUse">
<stop stop-color="#53E88B"/>
<stop offset="1" stop-color="#15BE77"/>
</linearGradient>
</defs>
</svg>
