<svg width="26" height="24" viewBox="0 0 26 24" fill="none" xmlns="http://www.w3.org/2000/svg">
<g opacity="0.5">
<path opacity="0.4" fill-rule="evenodd" clip-rule="evenodd" d="M6.86334 20.5886C6.86334 19.7486 7.58165 19.0686 8.46898 19.0686C9.34574 19.0686 10.064 19.7486 10.064 20.5886C10.064 21.4186 9.34574 22.0986 8.46898 22.0986C7.58165 22.0986 6.86334 21.4186 6.86334 20.5886ZM18.7471 20.5886C18.7471 19.7486 19.4655 19.0686 20.3528 19.0686C21.2295 19.0686 21.9478 19.7486 21.9478 20.5886C21.9478 21.4186 21.2295 22.0986 20.3528 22.0986C19.4655 22.0986 18.7471 21.4186 18.7471 20.5886Z" fill="url(#paint0_linear_277_19302)"/>
<path fill-rule="evenodd" clip-rule="evenodd" d="M21.9481 6.34909C22.5924 6.34909 23.015 6.55909 23.4375 7.01909C23.86 7.47909 23.934 8.13909 23.8389 8.73809L22.8354 15.2981C22.6452 16.5591 21.5044 17.4881 20.1628 17.4881H8.6382C7.23327 17.4881 6.07129 16.4681 5.9551 15.1491L4.98327 4.24809L3.3882 3.98809C2.96566 3.91809 2.66989 3.52809 2.74383 3.12809C2.81777 2.71809 3.22975 2.44809 3.66284 2.50809L6.18221 2.86809C6.54137 2.92909 6.80545 3.20809 6.83714 3.54809L7.03784 5.78809C7.06953 6.10909 7.34418 6.34909 7.68221 6.34909H21.9481ZM15.5466 11.5481H18.4727C18.9164 11.5481 19.265 11.2081 19.265 10.7981C19.265 10.3781 18.9164 10.0481 18.4727 10.0481H15.5466C15.103 10.0481 14.7544 10.3781 14.7544 10.7981C14.7544 11.2081 15.103 11.5481 15.5466 11.5481Z" fill="url(#paint1_linear_277_19302)"/>
</g>
<defs>
<linearGradient id="paint0_linear_277_19302" x1="6.86334" y1="18.8826" x2="18.0434" y2="27.5061" gradientUnits="userSpaceOnUse">
<stop stop-color="#53E88B"/>
<stop offset="1" stop-color="#15BE77"/>
</linearGradient>
<linearGradient id="paint1_linear_277_19302" x1="2.73248" y1="1.57942" x2="26.5868" y2="6.79299" gradientUnits="userSpaceOnUse">
<stop stop-color="#53E88B"/>
<stop offset="1" stop-color="#15BE77"/>
</linearGradient>
</defs>
</svg>
