<svg width="18" height="20" viewBox="0 0 18 20" fill="none" xmlns="http://www.w3.org/2000/svg">
<g opacity="0.5">
<path d="M9.08132 13.1746C4.52534 13.1746 0.633789 13.8546 0.633789 16.5746C0.633789 19.2956 4.50104 19.9996 9.08132 19.9996C13.6373 19.9996 17.5289 19.3206 17.5289 16.5996C17.5289 13.8786 13.6627 13.1746 9.08132 13.1746Z" fill="url(#paint0_linear_277_19306)"/>
<path opacity="0.4" d="M9.08141 10.5838C12.1849 10.5838 14.6716 8.22876 14.6716 5.29176C14.6716 2.35476 12.1849 -0.000244141 9.08141 -0.000244141C5.97895 -0.000244141 3.49127 2.35476 3.49127 5.29176C3.49127 8.22876 5.97895 10.5838 9.08141 10.5838Z" fill="url(#paint1_linear_277_19306)"/>
</g>
<defs>
<linearGradient id="paint0_linear_277_19306" x1="0.633789" y1="12.7555" x2="18.0446" y2="19.4332" gradientUnits="userSpaceOnUse">
<stop stop-color="#53E88B"/>
<stop offset="1" stop-color="#15BE77"/>
</linearGradient>
<linearGradient id="paint1_linear_277_19306" x1="3.49127" y1="-0.650139" x2="16.3629" y2="1.45648" gradientUnits="userSpaceOnUse">
<stop stop-color="#53E88B"/>
<stop offset="1" stop-color="#15BE77"/>
</linearGradient>
</defs>
</svg>
