<svg width="26" height="24" viewBox="0 0 26 24" fill="none" xmlns="http://www.w3.org/2000/svg">
<g opacity="0.5">
<path opacity="0.4" d="M13.2044 2C7.06706 2 2.61987 6.74 2.61987 12C2.61987 13.68 3.13748 15.41 4.04593 16.99C4.21494 17.25 4.23607 17.58 4.11987 17.89L3.41213 20.13C3.25368 20.67 3.73959 21.07 4.27832 20.91L6.41213 20.31C6.99311 20.13 7.44734 20.36 7.98713 20.67C9.52938 21.53 11.4509 21.97 13.1833 21.97C18.4227 21.97 23.7466 18.14 23.7466 11.97C23.7466 6.65 19.2044 2 13.2044 2Z" fill="url(#paint0_linear_313_22926)"/>
<path fill-rule="evenodd" clip-rule="evenodd" d="M13.1627 13.2901C12.4127 13.2801 11.8106 12.7101 11.8106 12.0001C11.8106 11.3001 12.4232 10.7201 13.1627 10.7301C13.9127 10.7301 14.5148 11.3001 14.5148 12.0101C14.5148 12.7101 13.9127 13.2901 13.1627 13.2901ZM8.29254 13.2901C7.55311 13.2901 6.94043 12.7101 6.94043 12.0101C6.94043 11.3001 7.54254 10.7301 8.29254 10.7301C9.04254 10.7301 9.64465 11.3001 9.64465 12.0101C9.64465 12.7101 9.04254 13.2801 8.29254 13.2901ZM16.6801 12.0101C16.6801 12.7101 17.2822 13.2901 18.0322 13.2901C18.7822 13.2901 19.3843 12.7101 19.3843 12.0101C19.3843 11.3001 18.7822 10.7301 18.0322 10.7301C17.2822 10.7301 16.6801 11.3001 16.6801 12.0101Z" fill="white"/>
</g>
<defs>
<linearGradient id="paint0_linear_313_22926" x1="2.61987" y1="0.773773" x2="26.9408" y2="4.76021" gradientUnits="userSpaceOnUse">
<stop stop-color="#53E88B"/>
<stop offset="1" stop-color="#15BE77"/>
</linearGradient>
</defs>
</svg>
