<svg width="26" height="24" viewBox="0 0 26 24" fill="none" xmlns="http://www.w3.org/2000/svg">
<g opacity="0.5">
<path opacity="0.4" fill-rule="evenodd" clip-rule="evenodd" d="M6.8634 20.5886C6.8634 19.7486 7.58171 19.0686 8.46904 19.0686C9.3458 19.0686 10.0641 19.7486 10.0641 20.5886C10.0641 21.4186 9.3458 22.0986 8.46904 22.0986C7.58171 22.0986 6.8634 21.4186 6.8634 20.5886ZM18.7472 20.5886C18.7472 19.7486 19.4655 19.0686 20.3528 19.0686C21.2296 19.0686 21.9479 19.7486 21.9479 20.5886C21.9479 21.4186 21.2296 22.0986 20.3528 22.0986C19.4655 22.0986 18.7472 21.4186 18.7472 20.5886Z" fill="url(#paint0_linear_284_19611)"/>
<path fill-rule="evenodd" clip-rule="evenodd" d="M21.9481 6.34909C22.5925 6.34909 23.015 6.55909 23.4376 7.01909C23.8601 7.47909 23.934 8.13909 23.839 8.73809L22.8354 15.2981C22.6453 16.5591 21.5045 17.4881 20.1629 17.4881H8.63826C7.23333 17.4881 6.07136 16.4681 5.95516 15.1491L4.98333 4.24809L3.38826 3.98809C2.96572 3.91809 2.66995 3.52809 2.74389 3.12809C2.81783 2.71809 3.22981 2.44809 3.66291 2.50809L6.18227 2.86809C6.54143 2.92909 6.80551 3.20809 6.8372 3.54809L7.03791 5.78809C7.0696 6.10909 7.34424 6.34909 7.68227 6.34909H21.9481ZM15.5467 11.5481H18.4728C18.9164 11.5481 19.265 11.2081 19.265 10.7981C19.265 10.3781 18.9164 10.0481 18.4728 10.0481H15.5467C15.103 10.0481 14.7545 10.3781 14.7545 10.7981C14.7545 11.2081 15.103 11.5481 15.5467 11.5481Z" fill="url(#paint1_linear_284_19611)"/>
</g>
<defs>
<linearGradient id="paint0_linear_284_19611" x1="6.8634" y1="18.8826" x2="18.0435" y2="27.5061" gradientUnits="userSpaceOnUse">
<stop stop-color="#53E88B"/>
<stop offset="1" stop-color="#15BE77"/>
</linearGradient>
<linearGradient id="paint1_linear_284_19611" x1="2.73254" y1="1.57942" x2="26.5868" y2="6.79299" gradientUnits="userSpaceOnUse">
<stop stop-color="#53E88B"/>
<stop offset="1" stop-color="#15BE77"/>
</linearGradient>
</defs>
</svg>
