<svg width="24" height="24" viewBox="0 0 24 24" fill="none" xmlns="http://www.w3.org/2000/svg">
<path fill-rule="evenodd" clip-rule="evenodd" d="M17.6 8.2C16.9373 9.08366 15.6837 9.26274 14.8 8.6L14 8V11.0001C14 12.1047 13.1046 13.0001 12 13.0001C10.8954 13.0001 10 12.1047 10 11.0001V8L9.2 8.6C8.31635 9.26274 7.06275 9.08366 6.4 8.2C5.73726 7.31634 5.91635 6.06274 6.8 5.4L10.8 2.4C11.5111 1.86667 12.4889 1.86667 13.2 2.4L17.2 5.4C18.0837 6.06274 18.2627 7.31634 17.6 8.2ZM6 12.0001C6 10.8956 5.10457 10.0001 4 10.0001C2.89543 10.0001 2 10.8956 2 12.0001V20.0001C2 21.1047 2.89543 22.0001 4 22.0001H20C21.1046 22.0001 22 21.1047 22 20.0001V12.0001C22 10.8956 21.1046 10.0001 20 10.0001C18.8954 10.0001 18 10.8956 18 12.0001V18.0001H6V12.0001Z" fill="white" fill-opacity="0.9"/>
</svg>
