<svg width="26" height="24" viewBox="0 0 26 24" fill="none" xmlns="http://www.w3.org/2000/svg">
<g opacity="0.5">
<path opacity="0.4" fill-rule="evenodd" clip-rule="evenodd" d="M6.86328 20.5886C6.86328 19.7486 7.58159 19.0686 8.46892 19.0686C9.34568 19.0686 10.064 19.7486 10.064 20.5886C10.064 21.4186 9.34568 22.0986 8.46892 22.0986C7.58159 22.0986 6.86328 21.4186 6.86328 20.5886ZM18.7471 20.5886C18.7471 19.7486 19.4654 19.0686 20.3527 19.0686C21.2295 19.0686 21.9478 19.7486 21.9478 20.5886C21.9478 21.4186 21.2295 22.0986 20.3527 22.0986C19.4654 22.0986 18.7471 21.4186 18.7471 20.5886Z" fill="url(#paint0_linear_313_22930)"/>
<path fill-rule="evenodd" clip-rule="evenodd" d="M21.948 6.34909C22.5924 6.34909 23.0149 6.55909 23.4374 7.01909C23.86 7.47909 23.9339 8.13909 23.8388 8.73809L22.8353 15.2981C22.6452 16.5591 21.5043 17.4881 20.1628 17.4881H8.63813C7.23321 17.4881 6.07123 16.4681 5.95504 15.1491L4.98321 4.24809L3.38814 3.98809C2.9656 3.91809 2.66983 3.52809 2.74377 3.12809C2.81771 2.71809 3.22968 2.44809 3.66278 2.50809L6.18215 2.86809C6.5413 2.92909 6.80539 3.20809 6.83708 3.54809L7.03778 5.78809C7.06947 6.10909 7.34412 6.34909 7.68215 6.34909H21.948ZM15.5466 11.5481H18.4726C18.9163 11.5481 19.2649 11.2081 19.2649 10.7981C19.2649 10.3781 18.9163 10.0481 18.4726 10.0481H15.5466C15.1029 10.0481 14.7543 10.3781 14.7543 10.7981C14.7543 11.2081 15.1029 11.5481 15.5466 11.5481Z" fill="url(#paint1_linear_313_22930)"/>
</g>
<defs>
<linearGradient id="paint0_linear_313_22930" x1="6.86328" y1="18.8826" x2="18.0434" y2="27.5061" gradientUnits="userSpaceOnUse">
<stop stop-color="#53E88B"/>
<stop offset="1" stop-color="#15BE77"/>
</linearGradient>
<linearGradient id="paint1_linear_313_22930" x1="2.73242" y1="1.57942" x2="26.5867" y2="6.79299" gradientUnits="userSpaceOnUse">
<stop stop-color="#53E88B"/>
<stop offset="1" stop-color="#15BE77"/>
</linearGradient>
</defs>
</svg>
