<svg width="26" height="24" viewBox="0 0 26 24" fill="none" xmlns="http://www.w3.org/2000/svg">
<g opacity="0.5">
<path opacity="0.4" fill-rule="evenodd" clip-rule="evenodd" d="M6.8634 20.5884C6.8634 19.7484 7.58171 19.0684 8.46904 19.0684C9.3458 19.0684 10.0641 19.7484 10.0641 20.5884C10.0641 21.4184 9.3458 22.0984 8.46904 22.0984C7.58171 22.0984 6.8634 21.4184 6.8634 20.5884ZM18.7472 20.5884C18.7472 19.7484 19.4655 19.0684 20.3528 19.0684C21.2296 19.0684 21.9479 19.7484 21.9479 20.5884C21.9479 21.4184 21.2296 22.0984 20.3528 22.0984C19.4655 22.0984 18.7472 21.4184 18.7472 20.5884Z" fill="url(#paint0_linear_308_19769)"/>
<path fill-rule="evenodd" clip-rule="evenodd" d="M21.9481 6.34884C22.5925 6.34884 23.015 6.55884 23.4376 7.01884C23.8601 7.47884 23.934 8.13884 23.839 8.73784L22.8354 15.2978C22.6453 16.5588 21.5045 17.4878 20.1629 17.4878H8.63826C7.23333 17.4878 6.07136 16.4678 5.95516 15.1488L4.98333 4.24784L3.38826 3.98784C2.96572 3.91784 2.66995 3.52784 2.74389 3.12784C2.81783 2.71784 3.22981 2.44784 3.66291 2.50784L6.18227 2.86784C6.54143 2.92884 6.80551 3.20784 6.8372 3.54784L7.03791 5.78784C7.0696 6.10884 7.34424 6.34884 7.68227 6.34884H21.9481ZM15.5467 11.5478H18.4728C18.9164 11.5478 19.265 11.2078 19.265 10.7978C19.265 10.3778 18.9164 10.0478 18.4728 10.0478H15.5467C15.103 10.0478 14.7545 10.3778 14.7545 10.7978C14.7545 11.2078 15.103 11.5478 15.5467 11.5478Z" fill="url(#paint1_linear_308_19769)"/>
</g>
<defs>
<linearGradient id="paint0_linear_308_19769" x1="6.8634" y1="18.8823" x2="18.0435" y2="27.5058" gradientUnits="userSpaceOnUse">
<stop stop-color="#53E88B"/>
<stop offset="1" stop-color="#15BE77"/>
</linearGradient>
<linearGradient id="paint1_linear_308_19769" x1="2.73254" y1="1.57918" x2="26.5868" y2="6.79274" gradientUnits="userSpaceOnUse">
<stop stop-color="#53E88B"/>
<stop offset="1" stop-color="#15BE77"/>
</linearGradient>
</defs>
</svg>
