<svg width="24" height="24" viewBox="0 0 24 24" fill="none" xmlns="http://www.w3.org/2000/svg">
<path fill-rule="evenodd" clip-rule="evenodd" d="M4.92905 16.2428C4.148 17.0238 4.148 18.2901 4.92905 19.0712C5.7101 19.8522 6.97643 19.8522 7.75748 19.0712L12.0001 14.8285L16.2428 19.0712C17.0238 19.8522 18.2901 19.8522 19.0712 19.0712C19.8522 18.2902 19.8522 17.0238 19.0712 16.2428L14.8285 12.0001L19.0712 7.75748C19.8522 6.97643 19.8522 5.7101 19.0712 4.92905C18.2901 4.148 17.0238 4.148 16.2428 4.92905L12.0001 9.1717L7.75748 4.92906C6.97643 4.14802 5.7101 4.14802 4.92905 4.92906C4.148 5.71011 4.148 6.97644 4.92905 7.75749L9.17168 12.0001L4.92905 16.2428Z" fill="white" fill-opacity="0.9"/>
</svg>
