<svg width="26" height="24" viewBox="0 0 26 24" fill="none" xmlns="http://www.w3.org/2000/svg">
<g opacity="0.5">
<path opacity="0.4" fill-rule="evenodd" clip-rule="evenodd" d="M6.86334 20.5884C6.86334 19.7484 7.58165 19.0684 8.46898 19.0684C9.34574 19.0684 10.064 19.7484 10.064 20.5884C10.064 21.4184 9.34574 22.0984 8.46898 22.0984C7.58165 22.0984 6.86334 21.4184 6.86334 20.5884ZM18.7471 20.5884C18.7471 19.7484 19.4655 19.0684 20.3528 19.0684C21.2295 19.0684 21.9478 19.7484 21.9478 20.5884C21.9478 21.4184 21.2295 22.0984 20.3528 22.0984C19.4655 22.0984 18.7471 21.4184 18.7471 20.5884Z" fill="url(#paint0_linear_308_19652)"/>
<path fill-rule="evenodd" clip-rule="evenodd" d="M21.9481 6.34884C22.5924 6.34884 23.015 6.55884 23.4375 7.01884C23.86 7.47884 23.934 8.13884 23.8389 8.73784L22.8354 15.2978C22.6452 16.5588 21.5044 17.4878 20.1628 17.4878H8.6382C7.23327 17.4878 6.07129 16.4678 5.9551 15.1488L4.98327 4.24784L3.3882 3.98784C2.96566 3.91784 2.66989 3.52784 2.74383 3.12784C2.81777 2.71784 3.22975 2.44784 3.66284 2.50784L6.18221 2.86784C6.54137 2.92884 6.80545 3.20784 6.83714 3.54784L7.03784 5.78784C7.06953 6.10884 7.34418 6.34884 7.68221 6.34884H21.9481ZM15.5466 11.5478H18.4727C18.9164 11.5478 19.265 11.2078 19.265 10.7978C19.265 10.3778 18.9164 10.0478 18.4727 10.0478H15.5466C15.103 10.0478 14.7544 10.3778 14.7544 10.7978C14.7544 11.2078 15.103 11.5478 15.5466 11.5478Z" fill="url(#paint1_linear_308_19652)"/>
</g>
<defs>
<linearGradient id="paint0_linear_308_19652" x1="6.86334" y1="18.8823" x2="18.0434" y2="27.5058" gradientUnits="userSpaceOnUse">
<stop stop-color="#53E88B"/>
<stop offset="1" stop-color="#15BE77"/>
</linearGradient>
<linearGradient id="paint1_linear_308_19652" x1="2.73248" y1="1.57918" x2="26.5868" y2="6.79274" gradientUnits="userSpaceOnUse">
<stop stop-color="#53E88B"/>
<stop offset="1" stop-color="#15BE77"/>
</linearGradient>
</defs>
</svg>
