<svg width="315" height="389" viewBox="0 0 315 389" fill="none" xmlns="http://www.w3.org/2000/svg">
<path d="M0 15C0 6.71574 6.71573 0 15 0H300C308.284 0 315 6.71573 315 15V262.817C315 264.916 314.56 266.991 313.707 268.909L308.694 280.189C306.347 285.47 306.399 291.507 308.836 296.746L313.601 306.992C314.522 308.973 315 311.132 315 313.318V374C315 382.284 308.284 389 300 389H15C6.71573 389 0 382.284 0 374V313.318C0 311.132 0.477532 308.973 1.39918 306.992L6.16444 296.746C8.60141 291.507 8.65312 285.47 6.30625 280.189L1.29283 268.909C0.440434 266.991 0 264.916 0 262.817V15Z" fill="url(#paint0_linear_206_54)"/>
<defs>
<linearGradient id="paint0_linear_206_54" x1="157.5" y1="0" x2="157.5" y2="389" gradientUnits="userSpaceOnUse">
<stop offset="0.479167" stop-color="#53E88B"/>
<stop offset="1" stop-color="#15BE77" stop-opacity="0.81"/>
</linearGradient>
</defs>
</svg>
