<svg width="20" height="20" viewBox="0 0 20 20" fill="none" xmlns="http://www.w3.org/2000/svg">
<path d="M17.2411 15.8249L17.241 15.8242L16.4525 5.69575C16.4525 5.6957 16.4525 5.69564 16.4525 5.69559C16.3938 4.91674 15.7475 4.30075 14.9707 4.30075H13.6591C13.5673 2.33087 11.9657 0.75 10.0002 0.75C8.03467 0.75 6.43304 2.33087 6.34125 4.30075H5.02963C4.25308 4.30075 3.60661 4.91642 3.54796 5.69408C3.54795 5.69419 3.54795 5.6943 3.54794 5.69441L2.75922 15.8256L2.75917 15.8262C2.69303 16.7052 2.99182 17.5806 3.58079 18.2288C4.16993 18.8773 5.00564 19.25 5.87506 19.25H14.1252C14.9946 19.25 15.8304 18.8773 16.4195 18.2288L16.2345 18.0607L16.4195 18.2288C17.0085 17.5806 17.3073 16.7052 17.2411 15.8249ZM5.07443 5.85508H6.3371V6.90358C6.3371 7.32822 6.67605 7.68075 7.10422 7.68075C7.53238 7.68075 7.87134 7.32822 7.87134 6.90358V5.85508H12.129V6.90358C12.129 7.32822 12.4679 7.68075 12.8961 7.68075C13.3243 7.68075 13.6632 7.32822 13.6632 6.90358V5.85508H14.9259L15.7114 15.9443C15.7114 15.9444 15.7114 15.9445 15.7114 15.9446C15.7459 16.4037 15.5964 16.8397 15.2907 17.1762C14.9851 17.5125 14.5724 17.6957 14.1252 17.6957H5.8751C5.42788 17.6957 5.01523 17.5125 4.70965 17.1762C4.40394 16.8397 4.25453 16.4037 4.28891 15.9461C4.28891 15.946 4.28892 15.9459 4.28893 15.9458L5.07443 5.85508ZM7.87844 4.30075C7.96779 3.18106 8.88953 2.30434 10.0002 2.30434C11.1108 2.30434 12.0325 3.18109 12.1219 4.30075H7.87844Z" fill="#3FDA85" stroke="#3FDA85" stroke-width="0.5"/>
<path d="M11.6339 9.75626C11.9602 9.42989 12.4894 9.42987 12.8157 9.75626L11.6339 9.75626ZM11.6339 9.75626V9.75626L11.6338 9.75628L9.19517 12.195L8.36626 11.366C8.36625 11.366 8.36625 11.366 8.36624 11.366C8.03989 11.0396 7.5107 11.0397 7.18433 11.366C6.85795 11.6924 6.85795 12.2216 7.18433 12.5479L8.60421 13.9678C8.76732 14.1309 8.98164 14.2126 9.19513 14.2126C9.40853 14.2126 9.62292 14.131 9.78605 13.9678C9.78607 13.9678 9.78609 13.9678 9.78611 13.9678L12.8157 10.9382C13.1421 10.6118 13.1421 10.0827 12.8157 9.75629L11.6339 9.75626Z" fill="#3FDA85" stroke="white" stroke-width="0.5"/>
</svg>
