<svg width="16" height="12" viewBox="0 0 16 12" fill="none" xmlns="http://www.w3.org/2000/svg">
<path fill-rule="evenodd" clip-rule="evenodd" d="M8.33045 2.60789C10.5463 2.60799 12.6775 3.45943 14.2835 4.98623C14.4044 5.1041 14.5977 5.10261 14.7168 4.98289L15.8728 3.81623C15.9331 3.7555 15.9667 3.67325 15.9662 3.58767C15.9657 3.50209 15.9311 3.42024 15.8701 3.36023C11.655 -0.67932 5.00522 -0.67932 0.79012 3.36023C0.729062 3.4202 0.694418 3.50202 0.693855 3.5876C0.693292 3.67318 0.726856 3.75546 0.78712 3.81623L1.94345 4.98289C2.06248 5.1028 2.25593 5.10428 2.37679 4.98623C3.98294 3.45933 6.11434 2.60789 8.33045 2.60789ZM8.33044 6.40356C9.54793 6.40349 10.722 6.85602 11.6244 7.67323C11.7465 7.78921 11.9388 7.78669 12.0578 7.66756L13.2124 6.50089C13.2732 6.4397 13.307 6.35668 13.3061 6.27042C13.3052 6.18415 13.2698 6.10184 13.2078 6.04189C10.4596 3.48551 6.20364 3.48551 3.45544 6.04189C3.39336 6.10184 3.35795 6.18419 3.35713 6.27049C3.35632 6.35678 3.39017 6.43979 3.45111 6.50089L4.60544 7.66756C4.72443 7.78669 4.91671 7.78921 5.03877 7.67323C5.94065 6.85656 7.11376 6.40406 8.33044 6.40356ZM10.6434 8.95738C10.6452 9.04389 10.6112 9.12729 10.5494 9.18789L8.55211 11.2036C8.49356 11.2628 8.41374 11.2961 8.33045 11.2961C8.24715 11.2961 8.16733 11.2628 8.10878 11.2036L6.11111 9.18789C6.0494 9.12724 6.01545 9.04381 6.01728 8.95731C6.01911 8.8708 6.05656 8.78888 6.12078 8.73089C7.39635 7.65201 9.26454 7.65201 10.5401 8.73089C10.6043 8.78893 10.6417 8.87087 10.6434 8.95738Z" fill="white" fill-opacity="0.9"/>
</svg>
